<svg width="17" height="17" viewBox="0 0 17 17" fill="none" xmlns="http://www.w3.org/2000/svg">
<path d="M14.3766 0.28772H3.10288C1.81506 0.28772 0.767151 1.33563 0.767151 2.62345V13.8972C0.767151 15.185 1.81506 16.2329 3.10288 16.2329H14.3766C15.6644 16.2329 16.7124 15.185 16.7124 13.8972V2.62345C16.7124 1.33563 15.6644 0.28772 14.3766 0.28772ZM8.7709 12.4335C6.45257 12.4335 4.5666 10.5475 4.5666 8.22918C4.5666 5.91086 6.45257 4.02488 8.7709 4.02488C11.0892 4.02488 12.9752 5.91086 12.9752 8.22918C12.9752 10.5475 11.0892 12.4335 8.7709 12.4335ZM13.4424 4.95916C12.6696 4.95916 12.0409 4.33047 12.0409 3.55774C12.0409 2.785 12.6696 2.1563 13.4424 2.1563C14.2151 2.1563 14.8438 2.785 14.8438 3.55774C14.8438 4.33047 14.2151 4.95916 13.4424 4.95916Z" fill="#ED1C24"/>
</svg>
