<svg width="18" height="21" viewBox="0 0 18 21" fill="none" xmlns="http://www.w3.org/2000/svg">
<path fill-rule="evenodd" clip-rule="evenodd" d="M9.76318 19.7381C12.0507 18.1941 17.5821 13.9292 17.5821 8.79103C17.5821 3.93588 13.6462 0 8.79103 0C3.93588 0 0 3.93588 0 8.79103C0 13.9292 5.5314 18.1941 7.81888 19.7381C8.41254 20.1388 9.16951 20.1388 9.76318 19.7381ZM8.79076 11.5672C10.324 11.5672 11.5669 10.3243 11.5669 8.79113C11.5669 7.25792 10.324 6.01501 8.79076 6.01501C7.25756 6.01501 6.01465 7.25792 6.01465 8.79113C6.01465 10.3243 7.25756 11.5672 8.79076 11.5672Z" fill="#ED1C24"/>
</svg>
