<svg width="20" height="20" viewBox="0 0 20 20" fill="none" xmlns="http://www.w3.org/2000/svg">
<path d="M14.3335 13.874L13.6824 14.8507C13.5524 15.0457 13.3805 15.212 13.154 15.2719C12.4119 15.468 10.442 15.5565 7.44274 12.5573C4.4435 9.55805 4.53202 7.58805 4.72809 6.84602C4.78795 6.61949 4.95431 6.44759 5.14926 6.31762L6.126 5.66647C6.8532 5.18166 7.0497 4.19914 6.5649 3.47194L4.72018 0.704852C4.29702 0.0701185 3.48126 -0.172384 2.78008 0.12812L1.94792 0.48476C1.31576 0.755686 0.800094 1.24191 0.492514 1.85707C0.235541 2.37102 0.0363687 2.91223 0.00938285 3.48621C-0.0756602 5.29503 0.320967 9.75141 5.28479 14.7152C10.2486 19.6791 14.705 20.0757 16.5138 19.9906C17.0878 19.9636 17.629 19.7645 18.1429 19.5075C18.7581 19.1999 19.2443 18.6842 19.5152 18.0521L19.8719 17.2199C20.1724 16.5187 19.9299 15.703 19.2951 15.2798L16.5281 13.4351C15.8009 12.9503 14.8183 13.1468 14.3335 13.874Z" fill="#ED1C24"/>
</svg>
