<svg width="15" height="16" viewBox="0 0 15 16" fill="none" xmlns="http://www.w3.org/2000/svg">
<path d="M14.9238 0.655302C14.857 0.592833 14.762 0.57834 14.6814 0.618184L0.129866 7.83C0.0515256 7.86884 0.00107717 7.95221 0.000135462 8.04434C-0.000806242 8.13646 0.047983 8.22098 0.125561 8.26159L4.24363 10.4173C4.31915 10.4569 4.40919 10.4479 4.47664 10.3942L8.48054 7.2021L5.33731 10.6508C5.29247 10.7 5.2696 10.7674 5.27453 10.8358L5.58749 15.1833C5.59444 15.2796 5.65498 15.362 5.74103 15.3922C5.76404 15.4002 5.78767 15.4041 5.81103 15.4041C5.87511 15.4041 5.93744 15.3748 5.98081 15.3212L8.16655 12.6196L10.8686 13.9967C10.9272 14.0266 10.9951 14.0278 11.0547 14.0002C11.1143 13.9725 11.1597 13.9186 11.1791 13.8525L14.9898 0.906758C15.0165 0.816354 14.9905 0.717772 14.9238 0.655302Z" fill="white"/>
</svg>
