<svg width="28" height="28" viewBox="0 0 28 28" fill="none" xmlns="http://www.w3.org/2000/svg">
<g clip-path="url(#clip0_2_36)">
<path d="M13.9395 28.0111L13.5265 27.8279C13.0668 27.6261 2.3335 22.7786 2.3335 14.0006V6.38928C2.33391 5.65681 2.56541 4.94314 2.99504 4.34991C3.42468 3.75668 4.03053 3.31412 4.72633 3.08527L14.0002 0.0111084L23.274 3.08527C23.9698 3.31412 24.5757 3.75668 25.0053 4.34991C25.4349 4.94314 25.6664 5.65681 25.6668 6.38928V14.0006C25.6668 24.0071 14.8308 27.7148 14.3688 27.8688L13.9395 28.0111ZM14.0002 2.45761L5.46483 5.28794C5.2326 5.36379 5.03033 5.51119 4.88698 5.70902C4.74364 5.90685 4.66658 6.14497 4.66683 6.38928V14.0006C4.66683 20.4103 12.1802 24.5683 14.055 25.5051C15.9263 24.7526 23.3335 21.3074 23.3335 14.0006V6.38928C23.3337 6.14497 23.2567 5.90685 23.1133 5.70902C22.97 5.51119 22.7677 5.36379 22.5355 5.28794L14.0002 2.45761Z" fill="#1D293F"/>
<path d="M12.9631 16.9657H12.9246C12.6293 16.9611 12.338 16.8968 12.0683 16.7765C11.7986 16.6561 11.5561 16.4824 11.3555 16.2657L8.66513 13.4657L10.3463 11.8533L12.9643 14.5833L19.0088 8.53882L20.6585 10.1885L14.5206 16.3263C14.3162 16.5306 14.0733 16.6923 13.8059 16.802C13.5386 16.9118 13.2521 16.9674 12.9631 16.9657Z" fill="#ED1C24"/>
</g>
<defs>
<clipPath id="clip0_2_36">
<rect width="28" height="28" fill="white"/>
</clipPath>
</defs>
</svg>
