<svg width="57" height="57" viewBox="0 0 57 57" fill="none" xmlns="http://www.w3.org/2000/svg">
<path d="M30.2812 38.2969C30.7731 38.2969 31.1719 37.8981 31.1719 37.4062C31.1719 36.9144 30.7731 36.5156 30.2812 36.5156H26.7188C26.2269 36.5156 25.8281 36.9144 25.8281 37.4062C25.8281 37.8981 26.2269 38.2969 26.7188 38.2969H27.6094V39.3407C26.5728 39.7084 25.8281 40.6983 25.8281 41.8594C25.8281 43.3326 27.0267 44.5312 28.5 44.5312C29.9733 44.5312 31.1719 43.3326 31.1719 41.8594C31.1719 40.6983 30.4272 39.7084 29.3906 39.3407V38.2969H30.2812ZM28.5 42.75C28.0089 42.75 27.6094 42.3504 27.6094 41.8594C27.6094 41.3683 28.0089 40.9688 28.5 40.9688C28.9911 40.9688 29.3906 41.3683 29.3906 41.8594C29.3906 42.3504 28.9911 42.75 28.5 42.75Z" fill="#ED1C24"/>
<path d="M51.6562 55.2188H50.7656V47.2031C50.7656 46.7113 50.3668 46.3125 49.875 46.3125C49.3839 46.3125 48.9844 45.9129 48.9844 45.4219V27.3684C49.5159 27.0599 49.875 26.4857 49.875 25.8281V24.0469C49.875 23.3893 49.5159 22.8153 48.9844 22.5066V8.90625C49.4762 8.90625 49.875 8.50747 49.875 8.01562C49.875 7.52378 49.4762 7.125 48.9844 7.125V5.34375C48.9844 5.18399 48.9417 5.03448 48.8681 4.90489L51.4781 1.425C51.6805 1.15514 51.7131 0.794104 51.5622 0.492293C51.4113 0.190594 51.103 0 50.7656 0H6.23438C5.89705 0 5.58867 0.190594 5.43782 0.492293C5.28697 0.794104 5.31948 1.15514 5.52187 1.425L8.01562 4.75004V7.125C7.52378 7.125 7.125 7.52378 7.125 8.01562C7.125 8.50747 7.52378 8.90625 8.01562 8.90625V22.5066C7.48414 22.8151 7.125 23.3893 7.125 24.0469V25.8281C7.125 26.4857 7.48414 27.0597 8.01562 27.3684V45.4219C8.01562 45.9129 7.61607 46.3125 7.125 46.3125C6.63315 46.3125 6.23438 46.7113 6.23438 47.2031V55.2188H5.34375C4.8519 55.2188 4.45312 55.6175 4.45312 56.1094C4.45312 56.6012 4.8519 57 5.34375 57H51.6562C52.1481 57 52.5469 56.6012 52.5469 56.1094C52.5469 55.6175 52.1481 55.2188 51.6562 55.2188ZM8.90625 24.0469H13.3594V25.8281H8.90625V24.0469ZM29.3906 8.90625V10.7144C29.0958 10.6973 28.799 10.6875 28.5 10.6875C28.201 10.6875 27.9042 10.6972 27.6094 10.7144V8.90625H29.3906ZM41.8594 8.90625V18.7096C39.7103 14.6925 35.8028 11.7516 31.1719 10.9236V8.90625H41.8594ZM48.0938 24.0469V25.8281H43.6406V24.0469H48.0938ZM47.2031 44.5312H43.6406V27.6094H47.2031V44.5312ZM35.625 27.6094H21.375C19.9017 27.6094 18.7031 28.808 18.7031 30.2812V51.6562H15.1406V25.8281H17.8368C17.8411 25.8281 17.8457 25.8287 17.85 25.8287C17.8538 25.8287 17.8576 25.8282 17.8614 25.8281H41.8594V51.6562H38.2969V30.2812C38.2969 28.808 37.0983 27.6094 35.625 27.6094ZM28.5 12.4688C35.2625 12.4688 40.8668 17.5197 41.7404 24.0469H39.9407C39.5738 21.6741 38.479 19.4882 36.8186 17.775C36.7849 17.723 36.7457 17.6736 36.7002 17.628C36.6546 17.5824 36.605 17.5431 36.5529 17.5095C36.149 17.1189 35.7152 16.7545 35.2519 16.4216C34.8525 16.1346 34.296 16.2255 34.0089 16.6249C33.7217 17.0243 33.8127 17.5808 34.2121 17.8679C34.4037 18.0057 34.589 18.1503 34.7688 18.3L30.9559 22.1129C30.486 21.8025 29.9559 21.5802 29.3907 21.4653V16.072C29.9189 16.1196 30.4415 16.209 30.952 16.3405C31.428 16.4634 31.9139 16.1765 32.0367 15.7003C32.1594 15.2239 31.8727 14.7383 31.3964 14.6156C30.455 14.3729 29.4806 14.25 28.5 14.25C25.5754 14.25 22.7834 15.3432 20.6381 17.3283C18.7084 19.1141 17.4587 21.4759 17.0613 24.0469H15.2596C16.1332 17.5197 21.7375 12.4688 28.5 12.4688ZM27.6094 21.4651C27.0442 21.5801 26.514 21.8023 26.0441 22.1127L22.2314 18.3C23.7617 17.0241 25.6312 16.251 27.6093 16.072V21.4651H27.6094ZM20.9723 19.5599L24.7839 23.3714C24.6436 23.5836 24.5211 23.8095 24.4178 24.0468H18.8659C19.1695 22.3932 19.8944 20.8519 20.9723 19.5599ZM28.5 23.1562C29.2806 23.1562 29.9965 23.4948 30.4911 24.0469H26.5088C27.0034 23.4948 27.7193 23.1562 28.5 23.1562ZM32.5822 24.0469C32.4789 23.8096 32.3564 23.5837 32.2161 23.3717L36.0289 19.5588C37.1012 20.8445 37.8295 22.3872 38.1346 24.0469H32.5822ZM25.8281 10.9236C21.1972 11.7516 17.2897 14.6925 15.1406 18.7096V8.90625H25.8281V10.9236ZM13.3594 27.6094V44.5312H9.79688V27.6094H13.3594ZM15.1406 53.4375H18.7031V55.2188H15.1406V53.4375ZM20.4844 30.2812C20.4844 29.7902 20.8839 29.3906 21.375 29.3906H35.625C36.1161 29.3906 36.5156 29.7902 36.5156 30.2812V55.2188H20.4844V30.2812ZM38.2969 53.4375H41.8594V55.2188H38.2969V53.4375ZM43.6406 46.3125H47.3558C47.6245 47.0706 48.2262 47.6724 48.9844 47.9411V55.2188H43.6406V46.3125ZM47.2031 22.2656H43.6406V8.90625H47.2031V22.2656ZM43.6406 7.125V5.34375H47.2031V7.125H43.6406ZM48.9844 1.78125L47.6484 3.5625H40.0779C39.5861 3.5625 39.1873 3.96128 39.1873 4.45312C39.1873 4.94497 39.5861 5.34375 40.0779 5.34375H41.8594V7.125H15.1406V5.34375H36.5156C37.0075 5.34375 37.4062 4.94497 37.4062 4.45312C37.4062 3.96128 37.0075 3.5625 36.5156 3.5625H9.35156L8.01562 1.78125H48.9844ZM9.79688 5.34375H13.3594V7.125H9.79688V5.34375ZM13.3594 8.90625V22.2656H9.79688V8.90625H13.3594ZM8.01562 47.9411C8.77377 47.6724 9.3755 47.0706 9.64424 46.3125H13.3594V55.2188H8.01562V47.9411Z" fill="#ED1C24"/>
</svg>
