<svg width="70" height="54" viewBox="0 0 70 54" fill="none" xmlns="http://www.w3.org/2000/svg">
<path d="M68.8189 0.614258H59.0347C58.392 0.614258 57.8706 1.12764 57.8551 1.76639H12.1449C12.1293 1.1275 11.6077 0.614258 10.9653 0.614258H1.18111C0.528828 0.614258 0 1.14309 0 1.79537V52.2047C0 52.857 0.528828 53.3858 1.18111 53.3858H9.2668C9.91908 53.3858 10.4479 52.857 10.4479 52.2047C10.4479 52.1753 10.4468 52.1463 10.4448 52.1175C10.4444 51.1827 10.4346 50.2692 10.418 49.3739H59.5823C59.5651 50.2969 59.5555 51.2397 59.5555 52.2047C59.5555 52.857 60.0842 53.3858 60.7366 53.3858H68.819C69.4714 53.3858 70.0001 52.857 70.0001 52.2047V1.79537C70 1.14309 69.4713 0.614258 68.8189 0.614258ZM60.0448 3.56902C60.0708 3.35123 60.0943 3.15449 60.1151 2.97662H67.6379V27.3081H64.8471C61.9359 25.0757 60.1866 21.1549 59.646 15.6455C59.175 10.8453 59.7409 6.11199 60.0448 3.56902ZM57.6003 4.12875C57.5471 4.58731 57.4908 5.09193 57.4357 5.63608H12.5643C12.5094 5.0918 12.4532 4.58731 12.3998 4.12875H57.6003ZM2.36209 2.97649H9.8849C9.90555 3.15449 9.92906 3.35109 9.95518 3.56889C10.2592 6.11186 10.8251 10.8452 10.3541 15.6454C9.81354 21.1546 8.06408 25.0757 5.15293 27.3079H2.36209V2.97649ZM2.36209 51.0237V29.6701H4.97711C6.51656 31.9177 7.98629 39.1379 8.07775 51.0238H2.36209V51.0237ZM33.7303 47.012H10.3543C10.0376 38.2483 8.9023 31.7261 7.15818 28.7202C10.2674 26.031 12.1316 21.7178 12.7047 15.8762C12.9787 13.0836 12.9225 10.3395 12.7645 7.99803H33.7303V47.012ZM59.646 47.012H36.0924V7.99817H57.2355C57.0775 10.3396 57.0214 13.0837 57.2954 15.8763C57.8687 21.7178 59.7328 26.0311 62.842 28.7204C61.0977 31.7261 59.9627 38.2483 59.646 47.012ZM61.922 51.0237C62.0134 39.1378 63.4833 31.9175 65.0226 29.67H67.6376V51.0237H61.922Z" fill="#ED1C24"/>
</svg>
