<svg width="60" height="60" viewBox="0 0 60 60" fill="none" xmlns="http://www.w3.org/2000/svg">
<path d="M50 54.5V1.5C50 1.484 49.994 1.469 49.993 1.453C49.991 1.404 49.981 1.356 49.971 1.307C49.961 1.258 49.952 1.209 49.935 1.162C49.93 1.147 49.93 1.131 49.924 1.117C49.912 1.087 49.89 1.064 49.875 1.036C49.851 0.991 49.827 0.947 49.797 0.906C49.768 0.867 49.735 0.833 49.701 0.799C49.667 0.765 49.633 0.732 49.594 0.703C49.553 0.672 49.509 0.649 49.464 0.625C49.436 0.61 49.413 0.589 49.383 0.576C49.368 0.57 49.352 0.57 49.337 0.565C49.291 0.548 49.244 0.539 49.195 0.529C49.144 0.519 49.094 0.509 49.043 0.506C49.029 0.506 49.015 0.5 49 0.5H11C10.985 0.5 10.971 0.506 10.956 0.507C10.904 0.509 10.854 0.519 10.803 0.53C10.755 0.54 10.708 0.549 10.663 0.565C10.648 0.57 10.632 0.57 10.617 0.576C10.587 0.588 10.564 0.61 10.536 0.625C10.491 0.649 10.447 0.673 10.406 0.703C10.367 0.732 10.333 0.765 10.299 0.799C10.265 0.833 10.232 0.867 10.203 0.906C10.173 0.947 10.149 0.991 10.125 1.036C10.11 1.064 10.089 1.087 10.076 1.117C10.07 1.132 10.07 1.148 10.065 1.162C10.048 1.209 10.039 1.257 10.029 1.307C10.019 1.356 10.009 1.404 10.007 1.453C10.006 1.469 10 1.484 10 1.5V54.5H0V59.5H11H12H13H14H46H47H48H49H60V54.5H50ZM46.586 2.5L45.586 3.5H14.414L13.414 2.5H46.586ZM2 56.5H10V57.5H2V56.5ZM13 57.5H12V54.5V3.914L13 4.914V57.5ZM15 5.5H45V57.5H15V5.5ZM48 57.5H47V4.914L48 3.914V54.5V57.5ZM58 57.5H50V56.5H58V57.5Z" fill="#ED1C24"/>
<path d="M40.557 27.5H38.444C37.096 27.5 36 28.596 36 29.943V30.5H34.5C33.122 30.5 32 31.621 32 33C32 34.379 33.122 35.5 34.5 35.5H36V36.057C36 37.405 37.096 38.5 38.443 38.5H40.556C41.903 38.5 42.999 37.404 42.999 36.057V29.944C43 28.596 41.904 27.5 40.557 27.5ZM34.5 33.5C34.224 33.5 34 33.275 34 33C34 32.725 34.224 32.5 34.5 32.5H36H38V33.5H36H34.5ZM41 36.057C41 36.301 40.801 36.5 40.557 36.5H38.444C38.199 36.5 38 36.301 38 36.057V35.5H40V30.5H38V29.943C38 29.699 38.199 29.5 38.443 29.5H40.556C40.801 29.5 40.999 29.699 40.999 29.943V36.057H41Z" fill="#ED1C24"/>
</svg>
