<svg width="68" height="68" viewBox="0 0 68 68" fill="none" xmlns="http://www.w3.org/2000/svg">
<g clip-path="url(#clip0_36_534)">
<path d="M67.1901 28.0989L48.9683 9.87721C47.9222 8.82772 46.093 8.82772 45.0469 9.87721L36.6897 18.231C35.6187 19.31 35.6187 21.0666 36.6942 22.1523L38.9587 24.3906C37.4921 24.2739 35.4329 25.0332 35.2413 25.0208L30.0506 23.4126L31.3063 22.1569C31.8311 21.6321 32.1212 20.9351 32.1212 20.1951C32.1212 19.4516 31.831 18.7546 31.3074 18.2333L22.9546 9.87601C21.9041 8.82997 20.0839 8.82997 19.0333 9.87946L0.81481 28.0956C0.290197 28.6203 0 29.3184 0 30.0619C0 30.8019 0.290197 31.5001 0.813747 32.0214L9.16425 40.3752C9.68674 40.9 10.3848 41.189 11.125 41.189C11.8651 41.189 12.5609 40.9 13.0868 40.3752L13.6602 39.8018C15.1393 42.8992 20.1078 49.1971 23.5725 52.6641L28.1285 57.2201C29.5248 58.6141 30.8473 58.9099 31.7133 58.9099C32.816 58.9099 33.8518 58.4554 34.7088 57.5986C35.5475 56.7588 35.7843 55.9416 35.8375 55.3511C36.8417 55.5869 38.349 55.4769 39.2636 54.5612C40.1023 53.7247 40.3391 52.9042 40.3924 52.3137C41.3966 52.5494 42.9039 52.4429 43.8184 51.5272C44.6571 50.6874 44.8939 49.8702 44.9461 49.2797C45.9571 49.5018 47.4599 49.4022 48.3722 48.4897C49.1474 47.7134 49.9917 46.3262 49.3786 44.3939C50.6819 43.1779 52.8819 41.7601 55.0544 40.4681C55.5622 40.9181 56.1922 41.1878 56.8757 41.1878C57.6192 41.1878 58.3162 40.8988 58.8364 40.3741L67.1892 32.0236C68.2701 30.9379 68.2701 29.1813 67.1901 28.0989ZM11.126 37.5295L3.66073 30.0619L20.9939 12.723L28.4592 20.1906L11.126 37.5295ZM46.0907 46.025C45.9695 46.025 45.7372 45.9683 45.5309 45.9185C45.1819 45.8357 44.7874 45.7394 44.3477 45.7394C43.4614 45.7394 42.8834 46.1316 42.5536 46.4602C41.7829 47.2309 41.7002 48.057 41.6504 48.5524C41.6152 48.9015 41.6119 48.9207 41.5393 49.0636C41.4181 49.0636 41.1858 49.0069 40.9795 48.9571C40.6305 48.871 40.236 48.7781 39.794 48.7781C38.9043 48.7781 38.3253 49.1703 37.9977 49.4989C37.227 50.2696 37.1443 51.0957 37.0945 51.5876C37.0593 51.9366 37.056 51.9559 36.9812 52.0988C36.8599 52.0988 36.6264 52.0421 36.4202 51.9923C36.0734 51.9095 35.6802 51.8166 35.2382 51.8166C34.3484 51.8166 33.7694 52.2088 33.4452 52.534C32.6711 53.3048 32.5884 54.1309 32.5385 54.6262C32.5033 54.9753 32.4999 54.9945 32.3027 55.194C31.9887 55.5091 31.7802 55.5091 31.7122 55.5091C31.4017 55.5091 30.9722 55.2563 30.5312 54.8155L25.9752 50.2595C22.089 46.371 17.6724 40.1727 15.9679 37.4924L27.3512 26.1091L29.8627 26.8174C27.7626 28.4211 26.0954 30.7184 24.7491 32.3867C24.3026 32.9409 23.9489 33.3862 23.6996 33.6356C22.6366 34.6987 22.3113 35.8105 22.7329 36.9461C23.0434 37.7894 23.7211 38.4671 24.5791 39.3239C25.3429 40.0877 26.3051 40.4924 27.3637 40.4924C29.5306 40.4924 31.6057 38.8491 33.6129 37.2579C34.0527 36.9099 35.3742 36.0157 36.2037 35.4593C39.4643 38.4275 42.6093 41.3356 44.8273 43.5525C46.6642 45.3847 46.1757 45.8732 46.0907 46.025ZM47.5357 41.4962C47.4258 41.376 47.3532 41.2684 47.2332 41.1482C44.3251 38.24 40.5306 35.1267 38.1971 32.8907C37.4808 32.2039 36.1888 32.4102 35.1836 32.7195C34.0094 32.919 32.9101 33.4765 31.5036 34.5907C30.1719 35.647 28.3495 37.0909 27.3646 37.0909C27.232 37.0909 26.4613 36.5435 26.3151 36.3974C26.0329 36.1151 26.8614 35.1858 27.3963 34.5216C29.2618 32.2108 31.7426 29.6074 34.9919 28.3586C37.755 27.2955 39.6749 27.7533 42.217 27.7919L52.5473 38.0055C50.6853 39.1354 48.8945 40.3345 47.5357 41.4962ZM56.8766 37.5216L39.54 20.1895L47.0075 12.7253L64.3431 30.0574L56.8766 37.5216Z" fill="white"/>
</g>
<defs>
<clipPath id="clip0_36_534">
<rect width="68" height="68" fill="white"/>
</clipPath>
</defs>
</svg>
