<svg width="102" height="133" viewBox="0 0 102 133" fill="none" xmlns="http://www.w3.org/2000/svg">
<circle cx="50.827" cy="99.5092" r="33.1563" fill="#2F76EA" fill-opacity="0.14"/>
<circle cx="50.8269" cy="99.5092" r="12.4336" fill="#2F76EA" fill-opacity="0.58"/>
<circle cx="50.8268" cy="99.5092" r="23.4857" fill="#2F76EA" fill-opacity="0.16"/>
<g clip-path="url(#clip0_79_2678)" filter="url(#filter0_d_79_2678)">
<path d="M50.8269 18C32.8396 18 18.2048 32.6348 18.2048 50.622C18.2048 57.7403 20.4532 64.504 24.7125 70.1785L48.816 102.642C48.8762 102.72 48.9683 102.751 49.0352 102.821C50.2397 104.111 51.9779 103.786 52.8361 102.642C59.777 93.3805 72.4996 76.084 77.3913 69.5596C77.3913 69.5596 77.3929 69.5545 77.3946 69.5512L77.4247 69.511C81.3661 63.9737 83.4489 57.4426 83.4489 50.622C83.4489 32.6348 68.8142 18 50.8269 18ZM50.8269 68.2212C41.1423 68.2212 33.2277 60.3066 33.2277 50.622C33.2277 40.9375 41.1423 33.0229 50.8269 33.0229C60.5114 33.0229 68.4261 40.9375 68.4261 50.622C68.4261 60.3066 60.5114 68.2212 50.8269 68.2212Z" fill="#2F76EA"/>
<rect x="29" y="29" width="44" height="45" fill="#2F76EA"/>
<ellipse cx="50.8269" cy="52.5378" rx="20.7227" ry="20.7227" fill="white"/>
<g clip-path="url(#clip1_79_2678)">
<path d="M44.3904 45.5719C44.5665 45.7846 44.8817 45.8142 45.0944 45.6381C45.3071 45.462 45.3367 45.1468 45.1606 44.9341L44.3904 45.5719ZM42.0816 42L42.4667 41.6811C42.3486 41.5384 42.1613 41.4728 41.98 41.5104C41.7986 41.5481 41.653 41.6829 41.6014 41.8608L42.0816 42ZM38.9388 52.8434L38.6107 53.2207C38.7395 53.3326 38.9164 53.3712 39.0801 53.323C39.2437 53.2748 39.3715 53.1464 39.419 52.9826L38.9388 52.8434ZM36.6939 50.8916L37.0219 50.5142C36.8936 50.4026 36.7172 50.3639 36.5539 50.4116C36.3906 50.4592 36.2627 50.5866 36.2144 50.7498L36.6939 50.8916ZM34 60L33.5205 59.8582C33.4758 60.0094 33.505 60.1729 33.5994 60.2992C33.6938 60.4256 33.8423 60.5 34 60.5V60ZM67 60.5C67.2761 60.5 67.5 60.2761 67.5 60C67.5 59.7239 67.2761 59.5 67 59.5V60.5ZM45.1606 44.9341L42.4667 41.6811L41.6965 42.3189L44.3904 45.5719L45.1606 44.9341ZM41.6014 41.8608L38.4585 52.7042L39.419 52.9826L42.5619 42.1392L41.6014 41.8608ZM39.2668 52.466L37.0219 50.5142L36.3658 51.2689L38.6107 53.2207L39.2668 52.466ZM36.2144 50.7498L33.5205 59.8582L34.4795 60.1418L37.1733 51.0334L36.2144 50.7498ZM34 60.5H67V59.5H34V60.5Z" fill="#2F76EA"/>
<path d="M44 47.0771H45.1834C45.6518 47.0771 46.0037 47.1799 46.239 47.3855C46.4743 47.5888 46.592 47.9007 46.592 48.3213C46.592 48.5315 46.5651 48.7173 46.5113 48.8785C46.4598 49.0397 46.3824 49.1717 46.2793 49.2745C46.1785 49.3773 46.0552 49.4474 45.9095 49.4848V49.5164C46.0888 49.5631 46.2356 49.639 46.3499 49.7442C46.4642 49.8493 46.5483 49.9836 46.6021 50.1472C46.6581 50.3084 46.6861 50.5012 46.6861 50.7255C46.6861 51.0245 46.6335 51.285 46.5281 51.507C46.4228 51.7266 46.2693 51.8972 46.0675 52.0187C45.8658 52.1402 45.6227 52.2009 45.338 52.2009H44V47.0771ZM44.7396 49.2185H45.18C45.4086 49.2185 45.5767 49.1507 45.6843 49.0152C45.7919 48.8797 45.8457 48.6787 45.8457 48.4124C45.8457 48.1857 45.7896 48.0129 45.6776 47.8937C45.5655 47.7745 45.3963 47.715 45.1699 47.715H44.7396V49.2185ZM44.7396 49.8458V51.5421H45.2708C45.4882 51.5421 45.6518 51.4708 45.7616 51.3283C45.8737 51.1834 45.9297 50.965 45.9297 50.6729C45.9297 50.4907 45.9017 50.3388 45.8457 50.2173C45.7896 50.0958 45.7089 50.0035 45.6036 49.9404C45.4983 49.8773 45.3705 49.8458 45.2204 49.8458H44.7396Z" fill="black"/>
<path d="M47.4425 47.0771H48.162V49.8107C48.162 49.8808 48.1609 49.9544 48.1586 50.0315C48.1564 50.1086 48.1541 50.1928 48.1519 50.2839C48.1497 50.3727 48.1452 50.4696 48.1384 50.5748C48.134 50.6799 48.1284 50.7944 48.1216 50.9182H48.1485L49.7152 47.0771H50.6195V52.2009H49.9001V49.4077C49.9001 49.3329 49.9012 49.2547 49.9034 49.1729C49.9057 49.0888 49.9079 49.0012 49.9101 48.91C49.9146 48.8189 49.9202 48.7231 49.927 48.6227C49.9337 48.5199 49.9415 48.4136 49.9505 48.3037H49.9236L48.3402 52.2009H47.4425V47.0771Z" fill="black"/>
<path d="M53.1577 47.6764C52.9874 47.6764 52.8406 47.7278 52.7173 47.8306C52.594 47.9311 52.4921 48.0724 52.4114 48.2547C52.3329 48.4346 52.2747 48.6437 52.2366 48.882C52.1985 49.1203 52.1794 49.375 52.1794 49.646C52.1794 50.0549 52.2197 50.4054 52.3004 50.6974C52.3811 50.9871 52.4977 51.2091 52.6501 51.3633C52.8025 51.5152 52.9851 51.5911 53.198 51.5911C53.3437 51.5911 53.4816 51.5689 53.6116 51.5245C53.7415 51.4778 53.8659 51.4229 53.9847 51.3598V52.0502C53.8592 52.1227 53.7225 52.1776 53.5746 52.215C53.4289 52.2523 53.2698 52.271 53.0972 52.271C52.7453 52.271 52.4439 52.1671 52.1928 51.9591C51.9418 51.7512 51.7491 51.4509 51.6146 51.0584C51.4801 50.6659 51.4129 50.1928 51.4129 49.639C51.4129 49.2652 51.4488 48.9194 51.5205 48.6016C51.5922 48.2815 51.6987 48.0012 51.8399 47.7605C51.9833 47.5199 52.1615 47.3329 52.3744 47.1998C52.5873 47.0666 52.8338 47 53.114 47C53.2933 47 53.4659 47.0234 53.6317 47.0701C53.7976 47.1168 53.9578 47.1881 54.1125 47.2839L53.8805 47.9252C53.7684 47.8481 53.653 47.7874 53.5342 47.743C53.4154 47.6986 53.2899 47.6764 53.1577 47.6764Z" fill="black"/>
<path d="M57.8778 49.632C57.8778 50.0175 57.8453 50.3715 57.7803 50.6939C57.7175 51.0164 57.62 51.2956 57.4878 51.5315C57.3578 51.7675 57.1886 51.9498 56.9801 52.0783C56.7739 52.2068 56.5285 52.271 56.2439 52.271C55.9548 52.271 55.706 52.2056 55.4976 52.0748C55.2891 51.9439 55.1188 51.7605 54.9866 51.5245C54.8543 51.2862 54.7568 51.0058 54.6941 50.6834C54.6313 50.361 54.5999 50.0082 54.5999 49.625C54.5999 49.0456 54.6616 48.5619 54.7848 48.1741C54.9081 47.7839 55.0919 47.4907 55.3362 47.2944C55.5805 47.0981 55.883 47 56.2439 47C56.6249 47 56.9353 47.111 57.1751 47.3329C57.4172 47.5549 57.5942 47.8645 57.7063 48.2617C57.8206 48.6565 57.8778 49.1133 57.8778 49.632ZM55.3664 49.632C55.3664 50.0596 55.3989 50.4182 55.4639 50.7079C55.5312 50.9977 55.6298 51.2161 55.7598 51.3633C55.8898 51.5105 56.05 51.5841 56.2405 51.5841C56.4333 51.5841 56.5935 51.5129 56.7213 51.3703C56.849 51.2255 56.9454 51.0093 57.0104 50.722C57.0754 50.4322 57.1079 50.0689 57.1079 49.632C57.1079 48.9801 57.035 48.4918 56.8894 48.1671C56.7459 47.8423 56.5308 47.6799 56.2439 47.6799C56.0489 47.6799 55.8864 47.7535 55.7564 47.9007C55.6264 48.0479 55.5289 48.2664 55.4639 48.5561C55.3989 48.8435 55.3664 49.2021 55.3664 49.632Z" fill="black"/>
<path d="M59.9487 52.2009H59.2158V47.7535H58.2778V47.0771H60.8833V47.7535H59.9487V52.2009Z" fill="black"/>
<path d="M64.3157 52.2009H63.5761V49.8668H62.1877V52.2009H61.448V47.0771H62.1877V49.1869H63.5761V47.0771H64.3157V52.2009Z" fill="black"/>
<path d="M65.2604 52.2009V47.0771H66V52.2009H65.2604Z" fill="black"/>
<path d="M45.0657 53.8061C45.5565 53.8061 45.9196 53.9346 46.155 54.1916C46.3925 54.4463 46.5113 54.8318 46.5113 55.3481C46.5113 55.6098 46.4811 55.8435 46.4205 56.0491C46.36 56.2547 46.2681 56.4299 46.1449 56.5748C46.0238 56.7173 45.8714 56.8259 45.6877 56.9007C45.5039 56.9755 45.2865 57.0128 45.0355 57.0128H44.7396V58.9299H44V53.8061H45.0657ZM45.0186 54.4685H44.7396V56.347H44.9649C45.1486 56.347 45.2999 56.3143 45.4187 56.2488C45.5375 56.1811 45.6249 56.0748 45.6809 55.9299C45.7392 55.7827 45.7683 55.5911 45.7683 55.3551C45.7683 55.0421 45.7067 54.8166 45.5834 54.6787C45.4624 54.5386 45.2741 54.4685 45.0186 54.4685Z" fill="black"/>
<path d="M50.3203 56.361C50.3203 56.7465 50.2878 57.1005 50.2228 57.4229C50.16 57.7453 50.0626 58.0245 49.9303 58.2605C49.8003 58.4965 49.6311 58.6787 49.4227 58.8072C49.2165 58.9357 48.9711 59 48.6864 59C48.3973 59 48.1485 58.9346 47.9401 58.8037C47.7317 58.6729 47.5613 58.4895 47.4291 58.2535C47.2969 58.0152 47.1994 57.7348 47.1366 57.4124C47.0739 57.09 47.0425 56.7371 47.0425 56.354C47.0425 55.7745 47.1041 55.2909 47.2274 54.903C47.3507 54.5129 47.5344 54.2196 47.7787 54.0234C48.023 53.8271 48.3256 53.729 48.6864 53.729C49.0674 53.729 49.3779 53.84 49.6177 54.0619C49.8597 54.2839 50.0368 54.5935 50.1488 54.9907C50.2631 55.3855 50.3203 55.8423 50.3203 56.361ZM47.809 56.361C47.809 56.7886 47.8415 57.1472 47.9065 57.4369C47.9737 57.7266 48.0723 57.9451 48.2023 58.0923C48.3323 58.2395 48.4926 58.3131 48.6831 58.3131C48.8758 58.3131 49.0361 58.2418 49.1638 58.0993C49.2916 57.9544 49.3879 57.7383 49.4529 57.4509C49.5179 57.1612 49.5504 56.7979 49.5504 56.361C49.5504 55.7091 49.4776 55.2208 49.3319 54.896C49.1885 54.5713 48.9733 54.4089 48.6864 54.4089C48.4914 54.4089 48.329 54.4825 48.199 54.6297C48.069 54.7769 47.9715 54.9953 47.9065 55.285C47.8415 55.5724 47.809 55.9311 47.809 56.361Z" fill="black"/>
<path d="M51.1137 58.9299V53.8061H53.3695V54.4825H51.8533V55.8563H52.1357C52.4674 55.8563 52.7453 55.9112 52.9694 56.021C53.1958 56.1308 53.365 56.2979 53.4771 56.5222C53.5914 56.7442 53.6485 57.0234 53.6485 57.3598C53.6485 57.8598 53.5197 58.2465 53.2619 58.5199C53.0042 58.7932 52.6422 58.9299 52.176 58.9299H51.1137ZM51.8533 58.2605H52.1491C52.3979 58.2605 52.5873 58.1869 52.7173 58.0397C52.8473 57.8902 52.9123 57.6694 52.9123 57.3773C52.9123 57.1834 52.8843 57.0234 52.8282 56.8972C52.7722 56.771 52.687 56.6776 52.5727 56.6168C52.4607 56.5537 52.3172 56.5222 52.1424 56.5222H51.8533V58.2605Z" fill="black"/>
<path d="M57.4676 56.361C57.4676 56.7465 57.4351 57.1005 57.3701 57.4229C57.3074 57.7453 57.2099 58.0245 57.0776 58.2605C56.9476 58.4965 56.7784 58.6787 56.57 58.8072C56.3638 58.9357 56.1184 59 55.8337 59C55.5446 59 55.2958 58.9346 55.0874 58.8037C54.879 58.6729 54.7086 58.4895 54.5764 58.2535C54.4442 58.0152 54.3467 57.7348 54.2839 57.4124C54.2212 57.09 54.1898 56.7371 54.1898 56.354C54.1898 55.7745 54.2514 55.2909 54.3747 54.903C54.498 54.5129 54.6817 54.2196 54.926 54.0234C55.1703 53.8271 55.4729 53.729 55.8337 53.729C56.2148 53.729 56.5252 53.84 56.765 54.0619C57.007 54.2839 57.1841 54.5935 57.2961 54.9907C57.4105 55.3855 57.4676 55.8423 57.4676 56.361ZM54.9563 56.361C54.9563 56.7886 54.9888 57.1472 55.0538 57.4369C55.121 57.7266 55.2196 57.9451 55.3496 58.0923C55.4796 58.2395 55.6399 58.3131 55.8304 58.3131C56.0231 58.3131 56.1834 58.2418 56.3111 58.0993C56.4389 57.9544 56.5352 57.7383 56.6002 57.4509C56.6652 57.1612 56.6977 56.7979 56.6977 56.361C56.6977 55.7091 56.6249 55.2208 56.4792 54.896C56.3358 54.5713 56.1206 54.4089 55.8337 54.4089C55.6388 54.4089 55.4763 54.4825 55.3463 54.6297C55.2163 54.7769 55.1188 54.9953 55.0538 55.285C54.9888 55.5724 54.9563 55.9311 54.9563 56.361Z" fill="black"/>
<path d="M59.5385 58.9299H58.8056V54.4825H57.8677V53.8061H60.4731V54.4825H59.5385V58.9299Z" fill="black"/>
<path d="M61.0379 53.8061H61.7573V56.5397C61.7573 56.6098 61.7562 56.6834 61.754 56.7605C61.7517 56.8376 61.7495 56.9217 61.7472 57.0128C61.745 57.1016 61.7405 57.1986 61.7338 57.3037C61.7293 57.4089 61.7237 57.5234 61.717 57.6472H61.7439L63.3105 53.8061H64.2149V58.9299H63.4954V56.1367C63.4954 56.0619 63.4965 55.9836 63.4988 55.9019C63.501 55.8178 63.5033 55.7301 63.5055 55.639C63.51 55.5479 63.5156 55.4521 63.5223 55.3516C63.529 55.2488 63.5369 55.1425 63.5458 55.0327H63.5189L61.9355 58.9299H61.0379V53.8061Z" fill="black"/>
</g>
</g>
<defs>
<filter id="filter0_d_79_2678" x="-10" y="0" width="121.654" height="121.654" filterUnits="userSpaceOnUse" color-interpolation-filters="sRGB">
<feFlood flood-opacity="0" result="BackgroundImageFix"/>
<feColorMatrix in="SourceAlpha" type="matrix" values="0 0 0 0 0 0 0 0 0 0 0 0 0 0 0 0 0 0 127 0" result="hardAlpha"/>
<feOffset/>
<feGaussianBlur stdDeviation="9"/>
<feColorMatrix type="matrix" values="0 0 0 0 0.364706 0 0 0 0 0.447059 0 0 0 0 0.882353 0 0 0 0.59 0"/>
<feBlend mode="normal" in2="BackgroundImageFix" result="effect1_dropShadow_79_2678"/>
<feBlend mode="normal" in="SourceGraphic" in2="effect1_dropShadow_79_2678" result="shape"/>
</filter>
<clipPath id="clip0_79_2678">
<rect width="85.6538" height="85.6538" fill="white" transform="translate(8 18)"/>
</clipPath>
<clipPath id="clip1_79_2678">
<rect width="38" height="22" fill="white" transform="translate(32 42)"/>
</clipPath>
</defs>
</svg>
