<svg width="359" height="305" viewBox="0 0 359 305" fill="none" xmlns="http://www.w3.org/2000/svg">
<path fill-rule="evenodd" clip-rule="evenodd" d="M0.578796 257.364C54.2622 230.9 81.1036 199.805 81.1036 164.078C58.2221 161.432 39.3011 152.059 24.3402 135.96C9.37924 119.861 1.8989 101.226 1.8989 80.0542C1.8989 57.5595 9.15924 38.5937 23.6802 23.1562C38.2011 7.71863 56.462 0 78.4634 0C103.105 0 124.446 10.0342 142.487 30.103C160.528 50.1718 169.549 74.5407 169.549 103.21C169.549 189.22 121.586 256.482 25.6603 305L0.578796 257.364ZM190.03 257.364C244.153 230.9 271.215 199.805 271.215 164.078C247.893 161.432 228.752 152.059 213.791 135.96C198.83 119.861 191.35 101.226 191.35 80.0542C191.35 57.5595 198.72 38.5937 213.461 23.1562C228.202 7.71863 246.573 0 268.575 0C293.216 0 314.447 10.0342 332.268 30.103C350.09 50.1718 359 74.5407 359 103.21C359 189.22 311.258 256.482 215.772 305L190.03 257.364Z" fill="#F8F8F8"/>
</svg>
