<svg width="30" height="30" viewBox="0 0 30 30" fill="none" xmlns="http://www.w3.org/2000/svg">
<g clip-path="url(#clip0_36_302)">
<path d="M30 30H15C12.0333 30 9.13319 29.1203 6.66645 27.472C4.19972 25.8238 2.27713 23.4811 1.14181 20.7403C0.00649929 17.9994 -0.290551 14.9834 0.288228 12.0737C0.867006 9.16394 2.29562 6.49119 4.3934 4.3934C6.49119 2.29562 9.16394 0.867006 12.0737 0.288228C14.9834 -0.290551 17.9994 0.00649929 20.7403 1.14181C23.4811 2.27713 25.8238 4.19972 27.472 6.66645C29.1203 9.13319 30 12.0333 30 15V30ZM15 2.50001C11.6848 2.50001 8.50538 3.81697 6.16117 6.16117C3.81697 8.50538 2.50001 11.6848 2.50001 15C2.50001 18.3152 3.81697 21.4946 6.16117 23.8388C8.50538 26.183 11.6848 27.5 15 27.5H27.5V15C27.4964 11.6859 26.1782 8.50861 23.8348 6.16519C21.4914 3.82178 18.3141 2.50365 15 2.50001ZM14.8863 20.5238L23.375 12.14L21.625 10.36L13.1175 18.735L8.37501 14.1063L6.62501 15.8938L11.3563 20.5188C11.8248 20.9855 12.4593 21.2476 13.1206 21.2476C13.782 21.2476 14.4164 20.9855 14.885 20.5188L14.8863 20.5238Z" fill="#ED1C24"/>
</g>
<defs>
<clipPath id="clip0_36_302">
<rect width="30" height="30" fill="white"/>
</clipPath>
</defs>
</svg>
