<svg width="30" height="30" viewBox="0 0 30 30" fill="none" xmlns="http://www.w3.org/2000/svg">
<g clip-path="url(#clip0_36_298)">
<path d="M14.0875 2.52875C10.6262 2.81414 7.39478 4.37693 5.02199 6.91308C2.64919 9.44923 1.30467 12.7774 1.25 16.25L-4.37114e-07 16.25L-1.63918e-07 22.5C-1.20444e-07 23.4946 0.395088 24.4484 1.09835 25.1517C1.80161 25.8549 2.75544 26.25 3.75 26.25L26.25 26.25C27.2446 26.25 28.1984 25.8549 28.9016 25.1516C29.6049 24.4484 30 23.4946 30 22.5L30 16.25L28.75 16.25C28.7469 14.3695 28.3596 12.5094 27.6118 10.784C26.864 9.0586 25.7715 7.50421 24.4012 6.21624C23.0301 4.92241 21.4058 3.92676 19.6307 3.29209C17.8555 2.65742 15.9681 2.39751 14.0875 2.52875ZM22.6912 8.04125C23.8196 9.08918 24.7185 10.3597 25.331 11.7726C25.9436 13.1855 26.2565 14.7101 26.25 16.25L26.25 18.75L27.5 18.75L27.5 22.5C27.5 22.8315 27.3683 23.1495 27.1339 23.3839C26.8995 23.6183 26.5815 23.75 26.25 23.75L23.75 23.75L23.75 21.25L21.25 21.25L21.25 23.75L18.75 23.75L18.75 21.25L16.25 21.25L16.25 23.75L13.75 23.75L13.75 21.25L11.25 21.25L11.25 23.75L8.75 23.75L8.75 21.25L6.25 21.25L6.25 23.75L3.75 23.75C3.41848 23.75 3.10054 23.6183 2.86612 23.3839C2.6317 23.1495 2.5 22.8315 2.5 22.5L2.5 18.75L3.75 18.75L3.75 16.6787C3.70009 13.768 4.75598 10.9466 6.70466 8.78378C8.65335 6.62097 11.3498 5.27772 14.25 5.025C15.7891 4.91671 17.3339 5.12886 18.7869 5.64803C20.2398 6.1672 21.5693 6.9821 22.6912 8.04125ZM8.75 16.25L8.75 18.75L21.25 18.75L21.25 16.25C21.25 14.5924 20.5915 13.0027 19.4194 11.8306C18.2473 10.6585 16.6576 10 15 10C13.3424 10 11.7527 10.6585 10.5806 11.8306C9.40848 13.0027 8.75 14.5924 8.75 16.25ZM18.75 16.25L11.25 16.25C11.25 15.2554 11.6451 14.3016 12.3483 13.5983C13.0516 12.8951 14.0054 12.5 15 12.5C15.9946 12.5 16.9484 12.8951 17.6516 13.5983C18.3549 14.3016 18.75 15.2554 18.75 16.25Z" fill="#ED1C24"/>
</g>
<defs>
<clipPath id="clip0_36_298">
<rect width="30" height="30" fill="white" transform="translate(0 30) rotate(-90)"/>
</clipPath>
</defs>
</svg>
